<svg width="75" height="75" viewBox="0 0 75 75" fill="none" xmlns="http://www.w3.org/2000/svg">
<circle cx="37.2253" cy="37.2253" r="30.3944" transform="rotate(-15 37.2253 37.2253)" fill="#C4C4C4"/>
<path d="M24.148 42H24.89V37.562C24.89 36.022 26.094 35.21 27.312 35.21C28.614 35.21 29.342 35.896 29.342 37.45V42H30.084V37.492C30.084 35.406 29.034 34.566 27.48 34.566C26.178 34.566 25.226 35.308 24.89 36.106V34.678H24.148V42ZM32.3101 44.548H33.0521V40.334C33.4441 41.23 34.3821 42.112 35.8381 42.112C37.7281 42.112 39.1281 40.67 39.1281 38.374V38.262C39.1281 35.98 37.6861 34.566 35.8381 34.566C34.5501 34.566 33.4721 35.434 33.0521 36.386V34.678H32.3101V44.548ZM35.7821 41.482C34.2561 41.482 33.0381 40.404 33.0381 38.402V38.29C33.0381 36.274 34.3401 35.196 35.7681 35.196C37.1681 35.196 38.3581 36.274 38.3581 38.29V38.402C38.3581 40.362 37.3221 41.482 35.7821 41.482ZM40.8824 42H41.6244V37.534C41.6244 36.008 42.7724 35.21 43.8924 35.21C45.0684 35.21 45.7264 35.826 45.7264 37.38V42H46.4684V37.534C46.4684 36.008 47.6164 35.21 48.7364 35.21C49.9124 35.21 50.5704 35.826 50.5704 37.38V42H51.3124V37.422C51.3124 35.336 50.2764 34.566 48.8624 34.566C47.7564 34.566 46.7204 35.168 46.2584 36.204C45.9504 35.028 45.1104 34.566 44.0184 34.566C42.8284 34.566 41.9604 35.266 41.6244 36.064V34.678H40.8824V42Z" fill="black"/>
</svg>
