<svg width="75" height="75" viewBox="0 0 75 75" fill="none" xmlns="http://www.w3.org/2000/svg">
<circle cx="37.2253" cy="37.2253" r="30.3944" transform="rotate(-15 37.2253 37.2253)" fill="#C4C4C4"/>
<path d="M15.5867 38.9736L15.6157 39.4756L16.8935 39.4018C17.2378 39.382 17.4252 39.6001 17.4415 39.8822C17.4587 40.1809 17.317 40.3223 16.9893 40.3412L15.67 40.4173L15.699 40.9193L17.0639 40.8406C17.6613 40.8061 17.8967 40.4845 17.8715 40.0489C17.8509 39.6921 17.6587 39.4618 17.4411 39.3702L17.7854 39.3504L17.7565 38.8484L15.5867 38.9736Z" fill="black"/>
<path d="M15.359 43.4716L15.4879 43.9576L16.5363 43.6795C16.3613 43.8463 16.2605 44.131 16.3489 44.4644C16.4927 45.0067 17.0058 45.2876 17.6806 45.1087L17.7127 45.1001C18.3916 44.9201 18.6736 44.4111 18.534 43.8849C18.452 43.5756 18.202 43.3624 17.9703 43.2992L18.3077 43.2097L18.1788 42.7237L15.359 43.4716ZM16.7026 44.2416C16.6088 43.8882 16.769 43.6006 17.239 43.476L17.2711 43.4675C17.7371 43.3439 18.0299 43.5242 18.1194 43.8616C18.2036 44.1789 18.0385 44.4806 17.5726 44.6042L17.5405 44.6127C17.0906 44.732 16.7974 44.5991 16.7026 44.2416Z" fill="black"/>
<path d="M17.4026 47.4518L17.64 47.895L18.7865 47.2807C19.0796 47.1237 19.334 47.2467 19.4518 47.4665C19.5676 47.6826 19.5134 47.8719 19.2314 48.023L18.0483 48.6569L18.2857 49.1001L19.4322 48.4858C19.7253 48.3288 19.9797 48.4518 20.0975 48.6716C20.2153 48.8913 20.1591 49.077 19.8771 49.2281L18.694 49.862L18.9314 50.3053L20.1439 49.6556C20.6713 49.373 20.7344 48.9715 20.546 48.6199C20.4184 48.3818 20.1709 48.1749 19.8543 48.156C20.0413 47.9332 20.0416 47.6785 19.9081 47.4294C19.757 47.1474 19.4913 47.021 19.2627 47.0256L19.5558 46.8686L19.3183 46.4254L17.4026 47.4518Z" fill="black"/>
<path d="M22.365 53.3748L25.625 56.0297L25.3406 56.379L22.0805 53.7241L22.365 53.3748Z" fill="black"/>
<path d="M29.4589 58.8278L29.9364 58.9855L30.3378 57.7701C30.446 57.4426 30.7177 57.3485 30.986 57.4372C31.2702 57.531 31.3495 57.7147 31.2466 58.0265L30.8321 59.2813L31.3096 59.439L31.7384 58.1408C31.926 57.5725 31.7135 57.2354 31.2992 57.0986C30.9598 56.9865 30.6749 57.0806 30.5098 57.2492L30.618 56.9217L30.1405 56.764L29.4589 58.8278Z" fill="black"/>
<path d="M33.558 60.6938L34.0574 60.7526L34.1844 59.6755C34.2751 59.8996 34.5028 60.098 34.8453 60.1384C35.4025 60.2041 35.8524 59.8303 35.9342 59.137L35.9381 59.104C36.0203 58.4065 35.6507 57.957 35.1101 57.8933C34.7923 57.8558 34.5021 58.0099 34.3581 58.2021L34.399 57.8555L33.8996 57.7966L33.558 60.6938ZM34.7682 59.7276C34.4051 59.6848 34.1966 59.4301 34.2535 58.9472L34.2574 58.9142C34.3139 58.4354 34.5892 58.2294 34.9359 58.2703C35.2619 58.3087 35.4818 58.5732 35.4254 59.0519L35.4215 59.0849C35.367 59.5471 35.1355 59.7709 34.7682 59.7276Z" fill="black"/>
<path d="M38.0108 60.2573L38.5103 60.1995L38.3607 58.9074C38.3225 58.5771 38.5304 58.3857 38.7781 58.3571C39.0217 58.3289 39.1778 58.4488 39.2146 58.7667L39.369 60.1L39.8685 60.0422L39.7189 58.7501C39.6806 58.4199 39.8886 58.2285 40.1362 58.1998C40.3839 58.1711 40.5359 58.2916 40.5727 58.6095L40.7271 59.9428L41.2266 59.885L41.0684 58.5186C40.9996 57.9242 40.6494 57.7179 40.2531 57.7638C39.9848 57.7948 39.7014 57.949 39.5673 58.2364C39.429 57.9805 39.1922 57.8866 38.9115 57.9191C38.5936 57.9559 38.3784 58.1565 38.2986 58.3707L38.2604 58.0405L37.7609 58.0983L38.0108 60.2573Z" fill="black"/>
<path d="M45.9516 58.0614L49.6194 56.0063L49.8396 56.3992L46.1718 58.4544L45.9516 58.0614Z" fill="black"/>
<path d="M53.0235 53.2297L53.3458 52.8437L52.3632 52.0234C52.0984 51.8024 52.1109 51.5151 52.292 51.2982C52.4837 51.0685 52.6838 51.0623 52.9358 51.2727L53.9503 52.1195L54.2725 51.7335L53.223 50.8574C52.7636 50.4739 52.3719 50.5475 52.0923 50.8825C51.8633 51.1568 51.846 51.4563 51.9421 51.6719L51.6773 51.4509L51.3551 51.8369L53.0235 53.2297Z" fill="black"/>
<path d="M56.2663 50.1042L56.5047 49.6615L55.5498 49.1472C55.7915 49.1453 56.0598 49.0065 56.2233 48.7029C56.4893 48.2089 56.3072 47.653 55.6925 47.322L55.6633 47.3063C55.0449 46.9733 54.491 47.1517 54.2329 47.631C54.0812 47.9127 54.1178 48.2392 54.2436 48.4438L53.9362 48.2783L53.6978 48.721L56.2663 50.1042ZM55.8129 48.6235C55.6396 48.9454 55.326 49.0456 54.8979 48.8151L54.8687 48.7993C54.4442 48.5708 54.3539 48.2389 54.5194 47.9316C54.6751 47.6426 55.0018 47.5353 55.4263 47.7639L55.4555 47.7797C55.8653 48.0003 55.9883 48.2978 55.8129 48.6235Z" fill="black"/>
<path d="M57.498 45.8029L57.628 45.3172L56.3714 44.9811C56.0503 44.8952 55.9487 44.6314 56.0132 44.3906C56.0765 44.1537 56.2455 44.0526 56.5546 44.1353L57.8513 44.4821L57.9812 43.9964L56.7247 43.6603C56.4035 43.5744 56.302 43.3107 56.3664 43.0698C56.4309 42.8289 56.5988 42.7319 56.9079 42.8146L58.2046 43.1614L58.3345 42.6756L57.0057 42.3202C56.4276 42.1656 56.107 42.4154 56.0039 42.8008C55.9341 43.0617 55.9732 43.3819 56.1912 43.6123C55.9024 43.6468 55.728 43.8325 55.655 44.1055C55.5723 44.4146 55.6797 44.6885 55.8495 44.8415L55.5284 44.7556L55.3985 45.2413L57.498 45.8029Z" fill="black"/>
<ellipse cx="26.7671" cy="25.7866" rx="2.28775" ry="4.5755" fill="black"/>
<path d="M50.2982 26.4403C50.2982 27.6641 50.0495 28.7558 49.6626 29.5295C49.266 30.3228 48.7785 30.689 48.3373 30.689C47.896 30.689 47.4085 30.3228 47.0119 29.5295C46.625 28.7558 46.3763 27.6641 46.3763 26.4403C46.3763 25.2166 46.625 24.1248 47.0119 23.3511C47.4085 22.5578 47.896 22.1916 48.3373 22.1916C48.7785 22.1916 49.266 22.5578 49.6626 23.3511C50.0495 24.1248 50.2982 25.2166 50.2982 26.4403Z" fill="black" stroke="black" stroke-width="0.653642"/>
</svg>
